<mxfile host="Electron" agent="Mozilla/5.0 (Windows NT 10.0; Win64; x64) AppleWebKit/537.36 (KHTML, like Gecko) draw.io/24.7.17 Chrome/128.0.6613.36 Electron/32.0.1 Safari/537.36" version="24.7.17">
  <diagram name="Page-1" id="SlOQxHc1ZeIWnJ3YO5iF">
    <mxGraphModel dx="819" dy="482" grid="1" gridSize="10" guides="1" tooltips="1" connect="1" arrows="1" fold="1" page="1" pageScale="1" pageWidth="827" pageHeight="1169" math="0" shadow="0">
      <root>
        <mxCell id="0" />
        <mxCell id="1" parent="0" />
        <mxCell id="lXKOsfCWURgA42-3FkYe-12" value="" style="rounded=0;whiteSpace=wrap;html=1;fillColor=#f0a30a;fontColor=#000000;strokeColor=#BD7000;" vertex="1" parent="1">
          <mxGeometry x="390" y="370" width="140" height="240" as="geometry" />
        </mxCell>
        <mxCell id="lXKOsfCWURgA42-3FkYe-10" value="" style="rounded=0;whiteSpace=wrap;html=1;fillColor=#1ba1e2;fontColor=#ffffff;strokeColor=#006EAF;" vertex="1" parent="1">
          <mxGeometry x="530" y="370" width="170" height="240" as="geometry" />
        </mxCell>
        <mxCell id="lXKOsfCWURgA42-3FkYe-11" value="" style="rounded=0;whiteSpace=wrap;html=1;fillColor=#60a917;fontColor=#ffffff;strokeColor=#2D7600;" vertex="1" parent="1">
          <mxGeometry x="90" y="370" width="300" height="240" as="geometry" />
        </mxCell>
        <mxCell id="lXKOsfCWURgA42-3FkYe-1" value="Sazení semínek" style="rounded=1;whiteSpace=wrap;html=1;" vertex="1" parent="1">
          <mxGeometry x="100" y="450" width="120" height="40" as="geometry" />
        </mxCell>
        <mxCell id="lXKOsfCWURgA42-3FkYe-6" style="edgeStyle=orthogonalEdgeStyle;rounded=0;orthogonalLoop=1;jettySize=auto;html=1;" edge="1" parent="1" source="lXKOsfCWURgA42-3FkYe-2" target="lXKOsfCWURgA42-3FkYe-1">
          <mxGeometry relative="1" as="geometry" />
        </mxCell>
        <mxCell id="lXKOsfCWURgA42-3FkYe-7" style="edgeStyle=orthogonalEdgeStyle;rounded=0;orthogonalLoop=1;jettySize=auto;html=1;" edge="1" parent="1" source="lXKOsfCWURgA42-3FkYe-2" target="lXKOsfCWURgA42-3FkYe-3">
          <mxGeometry relative="1" as="geometry">
            <Array as="points">
              <mxPoint x="380" y="518" />
              <mxPoint x="310" y="518" />
            </Array>
          </mxGeometry>
        </mxCell>
        <mxCell id="lXKOsfCWURgA42-3FkYe-8" style="edgeStyle=orthogonalEdgeStyle;rounded=0;orthogonalLoop=1;jettySize=auto;html=1;" edge="1" parent="1" source="lXKOsfCWURgA42-3FkYe-2" target="lXKOsfCWURgA42-3FkYe-4">
          <mxGeometry relative="1" as="geometry">
            <Array as="points">
              <mxPoint x="400" y="518" />
              <mxPoint x="450" y="518" />
            </Array>
          </mxGeometry>
        </mxCell>
        <mxCell id="lXKOsfCWURgA42-3FkYe-9" style="edgeStyle=orthogonalEdgeStyle;rounded=0;orthogonalLoop=1;jettySize=auto;html=1;" edge="1" parent="1" source="lXKOsfCWURgA42-3FkYe-2" target="lXKOsfCWURgA42-3FkYe-5">
          <mxGeometry relative="1" as="geometry" />
        </mxCell>
        <mxCell id="lXKOsfCWURgA42-3FkYe-2" value="Pracovník" style="ellipse;whiteSpace=wrap;html=1;" vertex="1" parent="1">
          <mxGeometry x="350" y="545" width="80" height="40" as="geometry" />
        </mxCell>
        <mxCell id="lXKOsfCWURgA42-3FkYe-3" value="Přesazování rostlin" style="rounded=1;whiteSpace=wrap;html=1;" vertex="1" parent="1">
          <mxGeometry x="250" y="450" width="120" height="40" as="geometry" />
        </mxCell>
        <mxCell id="lXKOsfCWURgA42-3FkYe-4" value="Kontrola a seřizování ovládacího panelu" style="rounded=1;whiteSpace=wrap;html=1;" vertex="1" parent="1">
          <mxGeometry x="400" y="450" width="120" height="40" as="geometry" />
        </mxCell>
        <mxCell id="lXKOsfCWURgA42-3FkYe-5" value="Balení salátu" style="rounded=1;whiteSpace=wrap;html=1;" vertex="1" parent="1">
          <mxGeometry x="540" y="450" width="120" height="40" as="geometry" />
        </mxCell>
        <mxCell id="lXKOsfCWURgA42-3FkYe-13" value="&lt;font color=&quot;#000000&quot;&gt;Pracovní stanice&lt;/font&gt;" style="text;html=1;align=center;verticalAlign=middle;resizable=0;points=[];autosize=1;strokeColor=none;fillColor=none;" vertex="1" parent="1">
          <mxGeometry x="180" y="400" width="110" height="30" as="geometry" />
        </mxCell>
        <mxCell id="lXKOsfCWURgA42-3FkYe-14" value="&lt;font color=&quot;#000000&quot;&gt;Ovládací panel&lt;/font&gt;" style="text;html=1;align=center;verticalAlign=middle;resizable=0;points=[];autosize=1;strokeColor=none;fillColor=none;" vertex="1" parent="1">
          <mxGeometry x="410" y="400" width="100" height="30" as="geometry" />
        </mxCell>
        <mxCell id="lXKOsfCWURgA42-3FkYe-15" value="&lt;font color=&quot;#000000&quot;&gt;Balicí stanice&lt;/font&gt;" style="text;html=1;align=center;verticalAlign=middle;resizable=0;points=[];autosize=1;strokeColor=none;fillColor=none;" vertex="1" parent="1">
          <mxGeometry x="570" y="400" width="90" height="30" as="geometry" />
        </mxCell>
      </root>
    </mxGraphModel>
  </diagram>
</mxfile>
